<svg id="visual" viewBox="0 0 900 600" width="900" height="600" xmlns="http://www.w3.org/2000/svg" xmlns:xlink="http://www.w3.org/1999/xlink" version="1.1"><g stroke-width="1" stroke-linejoin="bevel"><path d="M506 368L584 397L609 207Z" fill="#58b5de" stroke="#58b5de"></path><path d="M584 397L695 317L609 207Z" fill="#1d415c" stroke="#1d415c"></path><path d="M584 397L740 429L695 317Z" fill="#254e6c" stroke="#254e6c"></path><path d="M609 207L361 293L506 368Z" fill="#5fc5ee" stroke="#5fc5ee"></path><path d="M900 228L767 122L695 317Z" fill="#336a8b" stroke="#336a8b"></path><path d="M695 317L767 122L609 207Z" fill="#1d415c" stroke="#1d415c"></path><path d="M609 207L412 83L361 293Z" fill="#4287ac" stroke="#4287ac"></path><path d="M482 0L412 83L609 207Z" fill="#58b5de" stroke="#58b5de"></path><path d="M506 368L582 600L584 397Z" fill="#5fc5ee" stroke="#5fc5ee"></path><path d="M584 397L582 600L740 429Z" fill="#254e6c" stroke="#254e6c"></path><path d="M319 462L582 600L506 368Z" fill="#1d415c" stroke="#1d415c"></path><path d="M252 395L319 462L361 293Z" fill="#3b789c" stroke="#3b789c"></path><path d="M361 293L319 462L506 368Z" fill="#50a5cd" stroke="#50a5cd"></path><path d="M731 0L482 0L609 207Z" fill="#58b5de" stroke="#58b5de"></path><path d="M740 429L900 228L695 317Z" fill="#4287ac" stroke="#4287ac"></path><path d="M900 0L731 0L767 122Z" fill="#66d5ff" stroke="#66d5ff"></path><path d="M767 122L731 0L609 207Z" fill="#5fc5ee" stroke="#5fc5ee"></path><path d="M146 241L252 395L361 293Z" fill="#336a8b" stroke="#336a8b"></path><path d="M582 600L741 600L740 429Z" fill="#336a8b" stroke="#336a8b"></path><path d="M740 429L900 444L900 228Z" fill="#58b5de" stroke="#58b5de"></path><path d="M741 600L900 444L740 429Z" fill="#2c5c7b" stroke="#2c5c7b"></path><path d="M352 0L251 137L412 83Z" fill="#336a8b" stroke="#336a8b"></path><path d="M412 83L251 137L361 293Z" fill="#50a5cd" stroke="#50a5cd"></path><path d="M482 0L352 0L412 83Z" fill="#5fc5ee" stroke="#5fc5ee"></path><path d="M900 228L900 101L767 122Z" fill="#58b5de" stroke="#58b5de"></path><path d="M162 600L316 600L319 462Z" fill="#336a8b" stroke="#336a8b"></path><path d="M319 462L316 600L582 600Z" fill="#1d415c" stroke="#1d415c"></path><path d="M147 0L146 241L251 137Z" fill="#4996bc" stroke="#4996bc"></path><path d="M251 137L146 241L361 293Z" fill="#4996bc" stroke="#4996bc"></path><path d="M252 395L162 600L319 462Z" fill="#58b5de" stroke="#58b5de"></path><path d="M900 101L900 0L767 122Z" fill="#254e6c" stroke="#254e6c"></path><path d="M741 600L900 600L900 444Z" fill="#4996bc" stroke="#4996bc"></path><path d="M0 421L162 600L252 395Z" fill="#3b789c" stroke="#3b789c"></path><path d="M352 0L147 0L251 137Z" fill="#66d5ff" stroke="#66d5ff"></path><path d="M146 241L0 356L252 395Z" fill="#66d5ff" stroke="#66d5ff"></path><path d="M0 84L0 356L146 241Z" fill="#4287ac" stroke="#4287ac"></path><path d="M0 356L0 421L252 395Z" fill="#4287ac" stroke="#4287ac"></path><path d="M147 0L0 84L146 241Z" fill="#4287ac" stroke="#4287ac"></path><path d="M147 0L0 0L0 84Z" fill="#336a8b" stroke="#336a8b"></path><path d="M0 421L0 600L162 600Z" fill="#3b789c" stroke="#3b789c"></path></g></svg>